<mxfile>
    <diagram id="QQwPJQA6IqbGsCtZss9I" name="Page-1">
        <mxGraphModel dx="898" dy="406" grid="1" gridSize="10" guides="1" tooltips="1" connect="1" arrows="1" fold="1" page="1" pageScale="1" pageWidth="827" pageHeight="1169" background="#F1FAEE" math="0" shadow="0">
            <root>
                <mxCell id="0"/>
                <mxCell id="1" parent="0"/>
                <mxCell id="5" value="&lt;meta charset=&quot;utf-8&quot; style=&quot;font-size: 18px;&quot;&gt;&lt;span style=&quot;color: rgb(255, 255, 255); font-family: helvetica; font-size: 18px; font-style: normal; font-weight: 400; letter-spacing: normal; text-align: center; text-indent: 0px; text-transform: none; word-spacing: 0px; display: inline; float: none;&quot;&gt;Ajout de la map avec leaflet et openstreet&lt;/span&gt;" style="shape=ext;double=1;rounded=1;whiteSpace=wrap;html=1;sketch=0;strokeColor=#C73500;fillColor=#fa6800;fontColor=#ffffff;fontSize=18;labelBackgroundColor=none;" parent="1" vertex="1">
                    <mxGeometry x="60" y="30" width="220" height="80" as="geometry"/>
                </mxCell>
                <mxCell id="6" value="faire rest leaft avant recherche suivante" style="html=1;whiteSpace=wrap;aspect=fixed;shape=isoRectangle;labelBackgroundColor=none;fillColor=#e51400;strokeColor=#B20000;fontColor=#ffffff;" vertex="1" parent="1">
                    <mxGeometry x="380" y="30" width="150" height="90" as="geometry"/>
                </mxCell>
                <mxCell id="7" value="" style="edgeStyle=segmentEdgeStyle;endArrow=classic;html=1;strokeColor=#000000;strokeWidth=6;" edge="1" parent="1" target="6">
                    <mxGeometry width="50" height="50" relative="1" as="geometry">
                        <mxPoint x="280" y="75" as="sourcePoint"/>
                        <mxPoint x="330" y="25" as="targetPoint"/>
                    </mxGeometry>
                </mxCell>
            </root>
        </mxGraphModel>
    </diagram>
</mxfile>